<svg width="16" height="16" viewBox="0 0 16 16" fill="none" xmlns="http://www.w3.org/2000/svg">
<path d="M15.5483 0.465586C15.1481 0.0548785 14.5559 -0.0981303 14.0037 0.0629316L1.1264 3.80762C0.543759 3.96949 0.13079 4.43415 0.0195441 5.02444C-0.0941024 5.6252 0.30286 6.38783 0.821472 6.70673L4.84792 9.18145C5.26089 9.43512 5.79391 9.3715 6.13565 9.02683L10.7463 4.38744C10.9784 4.14585 11.3626 4.14585 11.5947 4.38744C11.8268 4.62098 11.8268 4.99948 11.5947 5.24107L6.97599 9.88126C6.63345 10.2251 6.56943 10.7607 6.82153 11.1762L9.28174 15.243C9.56985 15.7262 10.0661 16 10.6103 16C10.6743 16 10.7463 16 10.8104 15.9919C11.4346 15.9114 11.9308 15.4846 12.1149 14.8806L15.9325 2.01983C16.1005 1.47222 15.9485 0.876294 15.5483 0.465586Z" fill="#00A3FF"/>
</svg>
