<svg width="30" height="30" viewBox="0 0 30 30" fill="none" xmlns="http://www.w3.org/2000/svg">
<path d="M9.26906 20.3138C9.26906 21.6692 9.28461 22.9753 9.25885 24.2806C9.25178 24.6377 9.49224 24.6812 9.70379 24.797C10.8431 25.42 11.4039 26.7045 11.0697 27.9267C10.7299 29.1697 9.61757 30.0062 8.33582 29.9827C7.11391 29.9603 6.02188 29.0989 5.72457 27.9227C5.41234 26.6877 5.92105 25.4244 7.04841 24.8402C7.43399 24.6403 7.51943 24.4168 7.51252 24.0319C7.49273 22.9429 7.50561 21.8532 7.50561 20.7625C5.58463 20.8446 4.20283 21.8702 3.61324 23.6239C2.99349 25.4676 2.37813 27.3128 1.75681 29.1559C1.53646 29.8095 1.10628 30.1004 0.606206 29.9502C0.0684392 29.7885 -0.132752 29.2833 0.0885427 28.6134C0.717403 26.711 1.32223 24.7999 1.99209 22.912C2.69539 20.9296 4.09054 19.6682 6.16292 19.1952C7.85412 18.8093 9.54862 18.4382 11.2789 18.0523C11.2789 17.3611 11.2723 16.7003 11.2827 16.0399C11.2862 15.8192 11.1388 15.7424 10.9923 15.6449C8.60313 14.0537 7.47294 11.8048 7.50891 8.9599C7.52493 7.69314 7.42582 6.42418 7.56639 5.15961C7.65293 4.38213 7.98322 3.70662 8.46319 3.09798C11.7254 -1.03827 18.2881 -1.032 21.5515 3.11286C22.0175 3.70458 22.3768 4.36475 22.4181 5.12327C22.5238 7.06868 22.6691 9.0249 22.2868 10.9528C21.897 12.9181 20.7966 14.4484 19.1325 15.5561C18.8078 15.7722 18.6654 15.9876 18.7222 16.3555C18.734 16.4317 18.7241 16.5113 18.7241 16.5893C18.7236 18.0708 18.7247 18.0656 20.2022 18.3853C21.4228 18.6494 22.6424 18.9199 23.8591 19.2011C25.9323 19.6804 27.3149 20.9536 28.0146 22.9352C28.6816 24.8244 29.2877 26.735 29.9156 28.6377C30.1262 29.2759 29.9355 29.7636 29.4235 29.9398C28.9244 30.1116 28.4663 29.8256 28.2511 29.1876C27.6609 27.4362 27.0358 25.695 26.5026 23.9265C25.9045 21.9431 24.5649 20.9494 22.5249 20.7354C22.5249 21.3771 22.5249 22.0131 22.5249 22.6645C24.5415 23.3664 25.4218 24.8186 25.3249 26.9225C25.2935 27.604 25.3297 28.2882 25.3171 28.9708C25.3047 29.646 24.9749 29.9664 24.303 29.9831C24.0683 29.9888 23.8335 29.9827 23.5987 29.9841C23.0825 29.9873 22.7198 29.7639 22.6325 29.2421C22.5444 28.7153 22.823 28.393 23.316 28.2384C23.3873 28.216 23.4616 28.2038 23.5547 28.182C23.5547 27.5277 23.5777 26.8836 23.5497 26.2418C23.5013 25.1328 22.655 24.3421 21.5689 24.3553C20.5066 24.3683 19.7096 25.155 19.6742 26.2525C19.654 26.8755 19.6705 27.4998 19.6705 28.1224C19.761 28.2884 19.9477 28.2392 20.0803 28.3103C20.4508 28.5089 20.6372 28.8106 20.5813 29.2154C20.522 29.6465 20.246 29.9276 19.8073 29.9711C19.4393 30.0076 19.0612 30.0119 18.6943 29.9702C18.2064 29.9148 17.9099 29.6145 17.9072 29.1119C17.9016 28.0002 17.8414 26.8811 17.9456 25.7784C18.1012 24.1302 19.1948 23.2129 20.7023 22.6655C20.7023 21.9043 20.7023 21.1306 20.7023 20.3086C19.988 20.1428 19.2694 19.9861 18.5567 19.806C18.2443 19.7271 18.1527 19.9243 18.0294 20.131C17.331 21.3022 16.6271 22.4702 15.9219 23.6373C15.3481 24.5869 14.6492 24.5847 14.0736 23.632C13.3683 22.4648 12.6554 21.3019 11.9703 20.123C11.804 19.8367 11.6447 19.7487 11.3201 19.8359C10.6614 20.0131 9.99137 20.1484 9.26906 20.3138ZM9.29544 9.1704C9.16116 12.3647 11.7883 15.0536 15.0007 15.0508C18.2206 15.048 20.8695 12.3307 20.6936 9.16335C19.9521 8.95254 19.3958 8.43929 18.8799 7.87638C18.6911 7.67042 18.5333 7.59854 18.2308 7.70989C16.0788 8.50146 13.9134 8.48283 11.7602 7.71068C11.4908 7.61404 11.3374 7.64646 11.1558 7.84694C10.6304 8.42723 10.0551 8.9469 9.29544 9.1704ZM9.42737 7.17487C9.75515 6.81621 10.0876 6.46177 10.4093 6.09793C10.8103 5.64467 11.2356 5.56307 11.8137 5.824C13.9385 6.78316 16.0876 6.79052 18.2104 5.81225C18.7643 5.55696 19.1628 5.65407 19.5694 6.06896C19.9232 6.43013 20.2424 6.84017 20.6597 7.09797C21.1185 5.04997 20.1301 3.70912 18.518 2.74621C16.426 1.49683 14.2296 1.40379 12.0272 2.45113C9.83729 3.49267 9.12393 4.74863 9.42737 7.17487ZM15.001 21.7472C15.5082 20.9022 15.8985 20.1117 16.4196 19.4193C17.0741 18.5499 16.9729 17.608 16.923 16.5844C15.6277 16.8797 14.3568 16.8662 13.0223 16.5801C13.1154 17.322 12.8407 18.0285 13.144 18.622C13.6802 19.671 14.3433 20.6559 15.001 21.7472ZM8.40948 28.2246C8.96578 28.2171 9.39345 27.7748 9.38795 27.2125C9.38245 26.6539 8.94693 26.2283 8.38278 26.2307C7.84108 26.2329 7.37462 26.7038 7.38703 27.2359C7.39944 27.7711 7.87595 28.2319 8.40948 28.2246Z" fill="white"/>
</svg>
