<svg width="30" height="30" viewBox="0 0 30 30" fill="none" xmlns="http://www.w3.org/2000/svg">
<path d="M27.3265 23.7687L27.305 23.769C26.6844 23.7796 26.1551 24.3071 26.1502 24.921C26.1477 25.2155 26.2778 25.5155 26.5068 25.7438C26.7367 25.9729 27.0399 26.1041 27.3519 26.1041C27.9659 26.0967 28.4853 25.5608 28.4867 24.9341C28.4875 24.6106 28.3673 24.3134 28.1472 24.0965C27.9329 23.8852 27.6412 23.7687 27.3265 23.7687ZM10.7781 28.8057C10.7841 29.127 10.684 29.3948 10.4801 29.6021C10.2325 29.8585 9.84504 29.9945 9.36051 29.9945L8.67937 29.9973C8.03178 29.9986 7.38392 30 6.73632 30C6.08846 30 5.44059 29.9986 4.79273 29.9945C2.02594 29.9776 0.0136335 27.9715 0.00818012 25.2248C-0.00272671 19.2952 -0.00272671 13.2057 0.00818012 7.12609C0.0133609 4.38 2.02185 2.37055 4.78373 2.34818C4.94706 2.34545 5.11121 2.34545 5.27836 2.34545L6.15908 2.34736L6.15635 1.95818C6.15117 1.71464 6.14736 1.45282 6.16208 1.19509C6.20762 0.483273 6.67416 0.00545454 7.32338 0.00545454C7.9977 0.021 8.44461 0.481091 8.48742 1.17791C8.50214 1.40236 8.49969 1.623 8.49696 1.85645L8.49587 1.94591C8.49314 2.06918 8.49041 2.19355 8.49041 2.31818H13.7093C13.7093 2.22273 13.7118 2.13 13.7142 2.03482L13.7161 1.96364C13.7213 1.75909 13.7265 1.548 13.7047 1.34236C13.6706 1.02873 13.8039 0.664091 14.0529 0.390545C14.2803 0.139091 14.574 0 14.8791 0C15.5965 0.006 16.0756 0.507818 16.1088 1.27855C16.117 1.50545 16.117 1.731 16.1143 1.968C16.1116 2.08036 16.1116 2.19382 16.1116 2.30973H21.4414L21.4393 1.83982C21.439 1.64209 21.4384 1.44164 21.445 1.239C21.4562 0.857455 21.5952 0.523091 21.8368 0.297818C22.0533 0.0957273 22.3309 -0.00627274 22.6453 0.00818181C23.3079 0.0264545 23.7665 0.522546 23.7848 1.24255C23.793 1.47818 23.7905 1.71218 23.7878 1.95682V2.316C24.1452 2.35555 24.5003 2.35582 24.8635 2.35309L24.9401 2.35336C25.4104 2.35582 25.8546 2.358 26.3056 2.45427C28.3166 2.88382 29.8983 4.73618 29.9853 6.76255C30.024 7.59927 29.5899 8.16382 28.8796 8.20009C28.1903 8.23991 27.7153 7.75718 27.6463 6.94091C27.5299 5.61082 26.5919 4.72936 25.2564 4.69582C24.9496 4.68818 24.6401 4.69064 24.3132 4.69282L23.7883 4.69309L23.7905 5.19491C23.7908 5.39727 23.7913 5.598 23.7848 5.79682C23.7665 6.52036 23.3098 7.01782 22.6483 7.03309C21.9614 7.047 21.4665 6.53236 21.4453 5.799C21.439 5.61082 21.4395 5.41991 21.4395 5.22464L21.4398 5.07764C21.4425 4.96091 21.4425 4.842 21.4425 4.72309H16.1036C16.1036 4.83218 16.1061 4.94127 16.1086 5.05036L16.1094 5.08009C16.1146 5.32146 16.1181 5.60155 16.1009 5.87182C16.0548 6.56182 15.5918 7.02709 14.9483 7.03036C14.9464 7.03036 14.9445 7.03036 14.9426 7.03036C14.3185 7.03036 13.8293 6.55173 13.7783 5.88982C13.7584 5.62255 13.7617 5.34736 13.7669 5.08855C13.7696 4.96391 13.7723 4.83927 13.7723 4.71245H8.50705L8.49559 5.87427C8.40725 6.60873 7.93935 7.06064 7.29203 7.03336C6.65507 7.01564 6.22916 6.57409 6.16535 5.87427H6.15935L6.1539 5.52518V4.71818C6.02302 4.71818 5.89486 4.71546 5.76671 4.71273L5.37134 4.70155C5.07358 4.69227 4.72074 4.68818 4.37364 4.73045C3.17007 4.87445 2.35805 5.86609 2.35287 7.19755C2.34469 9.3 2.34469 11.4025 2.34742 13.5022V25.0031C2.35015 26.6834 3.31131 27.6485 4.98442 27.6513C5.46432 27.6535 5.94531 27.6529 6.42603 27.6518L7.14642 27.6513C7.89081 27.6513 8.63275 27.6513 9.37741 27.6543C10.229 27.6545 10.7659 28.0958 10.7781 28.8057ZM29.9891 14.2454C29.9482 16.1321 28.4414 17.6452 26.5589 17.6899C25.817 17.7071 25.0827 17.7016 24.3334 17.6932C23.9132 17.6888 23.5688 17.5612 23.3379 17.3242C23.1355 17.1169 23.0311 16.8346 23.0358 16.5074C23.045 15.8198 23.5448 15.3668 24.3097 15.3535C24.6481 15.3477 24.9856 15.3491 25.3608 15.3496L26.0321 15.351C23.9181 12.9068 21.3793 11.9588 18.4887 12.5324C15.4083 13.1425 13.3636 15.0687 12.575 18.1023C11.7739 21.1871 12.665 23.8855 15.152 25.9064C17.602 27.8967 20.3709 28.2177 23.3801 26.8593C23.4557 26.8252 23.5301 26.7865 23.6043 26.7477C23.8396 26.6247 24.0839 26.4979 24.3628 26.5279C24.9125 26.5816 25.2809 26.8775 25.4279 27.3837C25.5907 27.9436 25.3641 28.4441 24.8059 28.7564C23.5306 29.4704 22.1275 29.8811 20.6352 29.9771C20.4208 29.991 20.2068 29.9975 19.9933 29.9975C17.3508 29.9975 14.8025 28.9522 12.9197 27.0764C10.8809 25.0454 9.81096 22.2297 9.98438 19.3514C10.2808 14.4286 14.3755 10.3454 19.3059 10.0555C19.5341 10.0421 19.7621 10.0353 19.9835 10.0353C22.9357 10.0353 25.4432 11.2001 27.6496 13.5968L27.6488 13.0402C27.6472 12.6622 27.6458 12.312 27.6518 11.9621C27.6583 11.5538 27.7958 11.2009 28.0384 10.9685C28.2495 10.7659 28.5426 10.6669 28.8507 10.6688C29.5248 10.6857 29.9826 11.205 29.9916 11.961C30.0003 12.687 30.006 13.4659 29.9891 14.2454ZM18.8159 18.7369C18.7837 18.228 18.7903 17.7125 18.7968 17.214L18.7979 17.1365C18.7995 17.0073 18.8012 16.8785 18.8017 16.7495C18.8072 15.8378 19.229 15.3087 19.9603 15.2981C19.9606 15.2981 19.9611 15.2981 19.9617 15.2981C20.2954 15.2981 20.5542 15.396 20.7524 15.5894C21.0049 15.8348 21.1415 16.2251 21.1475 16.7176C21.1519 17.0605 21.1508 17.4038 21.1497 17.7466L21.1489 18.2381C21.1478 18.5596 21.1505 18.8337 21.153 19.0705C21.1677 20.532 21.15 20.5743 20.2071 21.3447C19.9944 21.5187 19.7348 21.7309 19.418 22.0061L19.376 22.0424C19.1837 22.209 18.9896 22.3775 18.7832 22.5215C18.5596 22.6775 18.3177 22.7545 18.0821 22.7545C17.7598 22.7545 17.4495 22.6113 17.2129 22.3323H17.2126C16.8161 21.8643 16.8519 21.1827 17.2958 20.7472C17.5532 20.4949 17.897 20.1728 18.276 19.9175C18.6891 19.6394 18.8508 19.2862 18.8159 18.7369ZM29.6387 19.7479C29.8615 19.9699 29.9831 20.2642 29.9807 20.5762C29.9755 21.1955 29.4468 21.7249 28.8259 21.732C28.4946 21.7301 28.2042 21.6128 27.9836 21.3933C27.7614 21.1718 27.6398 20.8745 27.642 20.556C27.6463 19.9192 28.1486 19.4133 28.7861 19.404H28.803C29.1188 19.404 29.4157 19.5262 29.6387 19.7479Z" fill="white"/>
</svg>
