<svg width="192" height="192" viewBox="0 0 192 192" fill="none" xmlns="http://www.w3.org/2000/svg">
<g clip-path="url(#clip0)">
<path d="M59.016 129.698C59.016 138.352 59.115 146.691 58.951 155.025C58.906 157.305 60.437 157.583 61.784 158.322C69.038 162.3 72.609 170.501 70.481 178.305C68.317 186.241 61.235 191.582 53.074 191.432C45.294 191.289 38.341 185.789 36.448 178.279C34.46 170.394 37.699 162.328 44.877 158.598C47.332 157.322 47.876 155.895 47.832 153.437C47.706 146.484 47.788 139.527 47.788 132.563C35.557 133.087 26.759 139.635 23.005 150.832C19.059 162.604 15.141 174.385 11.185 186.153C9.78203 190.326 7.04303 192.183 3.85903 191.224C0.435025 190.192 -0.845975 186.966 0.563025 182.689C4.56703 170.543 8.41803 158.341 12.683 146.287C17.161 133.63 26.044 125.576 39.239 122.556C50.007 120.092 60.796 117.723 71.813 115.259C71.813 110.846 71.771 106.627 71.837 102.41C71.859 101.001 70.921 100.511 69.988 99.8879C54.776 89.7289 47.58 75.3699 47.809 57.2059C47.911 49.1179 47.28 41.0159 48.175 32.9419C48.726 27.9779 50.829 23.6649 53.885 19.7789C74.656 -6.63007 116.441 -6.59007 137.219 19.8739C140.186 23.6519 142.474 27.8669 142.737 32.7099C143.41 45.1309 144.335 57.6209 141.901 69.9299C139.419 82.4779 132.413 92.2489 121.817 99.3209C119.75 100.701 118.843 102.076 119.205 104.425C119.28 104.912 119.217 105.42 119.217 105.918C119.214 115.377 119.221 115.344 128.628 117.385C136.4 119.071 144.165 120.798 151.912 122.594C165.112 125.654 173.915 133.783 178.37 146.435C182.617 158.497 186.476 170.696 190.474 182.844C191.815 186.919 190.601 190.033 187.341 191.158C184.163 192.255 181.246 190.429 179.876 186.355C176.118 175.173 172.138 164.056 168.743 152.764C164.935 140.101 156.406 133.756 143.417 132.39C143.417 136.487 143.417 140.548 143.417 144.707C156.257 149.188 161.862 158.46 161.245 171.893C161.045 176.244 161.275 180.613 161.195 184.971C161.116 189.282 159.016 191.328 154.738 191.434C153.244 191.471 151.749 191.432 150.254 191.441C146.967 191.461 144.658 190.035 144.102 186.703C143.541 183.34 145.315 181.282 148.454 180.295C148.908 180.152 149.381 180.074 149.974 179.935C149.974 175.757 150.12 171.645 149.942 167.547C149.634 160.466 144.245 155.418 137.33 155.502C130.566 155.585 125.492 160.608 125.266 167.615C125.138 171.593 125.243 175.579 125.243 179.554C125.819 180.614 127.008 180.3 127.852 180.754C130.211 182.022 131.398 183.948 131.042 186.533C130.664 189.285 128.907 191.08 126.114 191.358C123.771 191.591 121.363 191.618 119.027 191.352C115.921 190.998 114.033 189.081 114.016 185.872C113.98 178.774 113.597 171.629 114.26 164.588C115.251 154.065 122.214 148.208 131.812 144.713C131.812 139.853 131.812 134.913 131.812 129.665C127.264 128.606 122.689 127.606 118.151 126.456C116.162 125.952 115.579 127.211 114.794 128.531C110.347 136.009 105.865 143.466 101.375 150.918C97.722 156.981 93.272 156.967 89.607 150.884C85.116 143.432 80.577 136.007 76.215 128.48C75.156 126.652 74.142 126.09 72.075 126.647C67.881 127.778 63.615 128.642 59.016 129.698ZM59.184 58.5499C58.329 78.9449 75.056 96.1129 95.51 96.0949C116.011 96.0769 132.877 78.7279 131.757 58.5049C127.036 57.1589 123.494 53.8819 120.209 50.2879C119.007 48.9729 118.002 48.5139 116.076 49.2249C102.374 54.2789 88.587 54.1599 74.877 49.2299C73.162 48.6129 72.185 48.8199 71.029 50.0999C67.684 53.8049 64.021 57.1229 59.184 58.5499ZM60.024 45.8089C62.111 43.5189 64.228 41.2559 66.276 38.9329C68.829 36.0389 71.537 35.5179 75.218 37.1839C88.747 43.3079 102.43 43.3549 115.946 37.1089C119.473 35.4789 122.01 36.0989 124.599 38.7479C126.852 41.0539 128.884 43.6719 131.541 45.3179C134.462 32.2419 128.169 23.6809 117.905 17.5329C104.585 9.55593 90.6 8.96193 76.577 15.6489C62.634 22.2989 58.092 30.3179 60.024 45.8089ZM95.512 138.85C98.741 133.455 101.226 128.408 104.544 123.987C108.711 118.436 108.067 112.422 107.749 105.887C99.502 107.772 91.41 107.686 82.913 105.859C83.506 110.596 81.757 115.107 83.688 118.896C87.102 125.594 91.324 131.882 95.512 138.85ZM53.543 180.207C57.085 180.159 59.808 177.335 59.773 173.745C59.738 170.178 56.965 167.461 53.373 167.476C49.924 167.49 46.954 170.497 47.033 173.894C47.112 177.311 50.146 180.253 53.543 180.207Z" fill="#040404"/>
</g>
<defs>
<clipPath id="clip0">
<rect width="191.011" height="191.545" fill="white"/>
</clipPath>
</defs>
</svg>
