<svg width="55" height="41" viewBox="0 0 55 41" fill="none" xmlns="http://www.w3.org/2000/svg">
<path d="M40.4397 28.5803H40.4198C38.7797 28.5902 37.2338 29.2356 36.0694 30.408C34.8851 31.5904 34.241 33.1619 34.2509 34.827C34.2707 38.241 37.0752 41.0245 40.4843 40.9998C42.1244 40.9949 43.6852 40.3348 44.8694 39.1426C46.0537 37.9504 46.6978 36.3936 46.6829 34.763C46.6483 31.349 43.8487 28.5803 40.4397 28.5803ZM42.5505 36.9503C41.9807 37.5021 41.2473 37.8075 40.4793 37.8075H40.4446C38.7996 37.7878 37.4568 36.4478 37.4468 34.8172C37.4419 33.9994 37.764 33.2259 38.3586 32.6446C38.9482 32.0682 39.7113 31.7628 40.5239 31.7825C42.164 31.817 43.482 33.1865 43.4672 34.8369C43.4622 35.63 43.1352 36.3838 42.5505 36.9503ZM14.6093 28.5803H14.5399C12.9395 28.5803 11.4183 29.2109 10.239 30.3588C9.02999 31.5411 8.35115 33.1028 8.34124 34.7581C8.32638 36.4133 8.96557 37.975 10.1498 39.1574C11.339 40.3446 12.9246 40.9998 14.6143 40.9998H14.6291C17.9638 40.99 20.7733 38.1721 20.7733 34.8418C20.7684 31.3687 18.0629 28.6197 14.6093 28.5803ZM14.5697 37.8124C14.535 37.8124 14.5003 37.8075 14.4656 37.8075C13.6579 37.7829 12.9048 37.4331 12.3548 36.8272C11.7949 36.2163 11.5124 35.4281 11.5669 34.6053C11.666 33.0092 13.0287 31.7431 14.6192 31.7874C15.4467 31.8121 16.2098 32.152 16.7697 32.7481C17.3246 33.3442 17.612 34.1176 17.5724 34.9354C17.503 36.5414 16.1652 37.8124 14.5697 37.8124ZM29.617 33.2181C29.0006 33.1954 28.5957 33.1989 28.1275 33.2048C27.8882 33.2072 27.6305 33.2117 27.3174 33.2102L25.9146 33.2087C25.7283 33.2082 25.6183 33.2033 25.5256 33.1989C25.4607 33.1959 25.4047 33.1934 25.3339 33.1934C25.2576 33.1934 25.1639 33.1964 25.0237 33.2043C24.0818 33.2594 23.4782 33.8408 23.4475 34.7206C23.4317 35.1793 23.5828 35.602 23.8731 35.9104C24.1526 36.2069 24.5327 36.371 24.9712 36.3843C26.8878 36.4434 27.8124 36.4444 29.6804 36.3877C30.1125 36.3749 30.5069 36.2 30.7918 35.8951C31.0817 35.5842 31.2372 35.1576 31.2179 34.7241C31.1813 33.8713 30.5227 33.2526 29.617 33.2181ZM19.3497 14.7593C18.8116 14.778 18.4782 14.6893 18.2626 14.4726C17.9891 14.1972 17.9693 13.773 17.9886 13.3557C18.0109 12.8715 17.8741 12.4532 17.5917 12.1463C17.3246 11.8561 16.9381 11.6857 16.5031 11.667C16.0547 11.6487 15.6236 11.8029 15.3085 12.1054C14.9938 12.4079 14.8229 12.8316 14.8273 13.2981C14.8318 13.7922 14.812 14.2243 14.5196 14.5001C14.2966 14.711 13.9627 14.7923 13.435 14.7588C13.0247 14.7366 12.6595 14.8642 12.3736 15.1347C12.053 15.4381 11.8727 15.8869 11.8781 16.3663C11.8836 16.8274 12.0486 17.2333 12.3434 17.5097C12.6357 17.7841 13.0336 17.9176 13.5004 17.8969C13.5554 17.8944 13.6079 17.893 13.6584 17.893C14.0638 17.893 14.3323 17.9743 14.5181 18.1501C14.7852 18.4029 14.8229 18.8103 14.8244 19.2132C14.8258 19.6409 14.9809 20.0138 15.2738 20.2926C15.582 20.5867 16.0215 20.7459 16.4892 20.7266C17.4079 20.6907 18.0045 20.0611 17.9742 19.16C17.9569 18.662 18.0362 18.3639 18.2383 18.1634C18.491 17.9132 18.878 17.8895 19.2571 17.9063C19.758 17.923 20.2079 17.7703 20.5191 17.4708C20.8139 17.187 20.975 16.785 20.973 16.3397C20.971 15.9007 20.7911 15.4785 20.4795 15.181C20.1792 14.8947 19.7793 14.7465 19.3497 14.7593ZM54.9974 25.6294C54.9974 24.4569 54.9925 23.2844 54.9974 22.112C54.9974 21.6144 54.8537 21.1809 54.5415 20.7572L51.8906 17.1461C49.6014 14.0178 47.2329 10.7812 44.8793 7.61843C43.8735 6.26859 42.5009 5.57397 40.7964 5.55426L40.0879 5.54441C39.2901 5.52963 38.4725 5.51485 37.6748 5.56411C37.2239 5.5986 36.9216 5.50992 36.7284 5.30794C36.4806 5.04191 36.5004 4.64287 36.5351 4.36699C36.5649 4.13545 36.55 3.87928 36.5351 3.63296V3.54921C36.4459 1.42592 35.0189 0.0366744 32.8982 0.00218952C32.4225 -0.0027369 31.9419 0.00218952 31.4612 0.00218952H30.7378C29.2364 0.00218952 28.181 0.337186 27.5022 1.02196C26.8382 1.69195 26.531 2.71172 26.5558 4.13545C26.5607 4.56405 26.531 4.99758 26.2585 5.26853C25.986 5.54441 25.54 5.58382 25.1337 5.57397C20.0796 5.52963 14.3516 5.47544 8.67818 5.58875C4.01554 5.67742 0.15065 9.44121 0.0664147 13.9735C-0.03764 19.4714 0.00199989 25.0629 0.0416398 30.4672L0.0515498 31.3638C0.0664147 33.492 1.56778 35.4428 3.70338 36.103C4.625 36.3887 5.50699 36.0094 5.79934 35.2064C6.12141 34.3295 5.72501 33.4575 4.85789 33.1323C3.71329 32.7087 3.20788 31.9155 3.21283 30.5706C3.2277 27.5655 3.2277 24.5653 3.2277 21.5602C3.2277 19.3088 3.2277 17.0525 3.23265 14.8011C3.24256 11.2196 5.6606 8.8057 9.24801 8.79092C11.9039 8.77614 14.5598 8.78107 17.2156 8.78107L20.1638 8.78599L20.4017 8.77614C21.4274 8.77614 22.453 8.78107 23.4787 8.78107C26.3031 8.78599 29.2265 8.79092 32.0955 8.75643C32.591 8.75151 32.8932 8.83526 33.0865 9.03724C33.3342 9.28849 33.3491 9.67275 33.3342 10.0521C33.2847 11.126 33.2946 12.2246 33.3045 13.2887L33.3094 14.2494C33.3292 19.5798 37.209 23.4716 42.5356 23.5061C45.573 23.5209 48.2636 23.516 50.7609 23.4913H50.8005C51.0879 23.4913 51.3803 23.5209 51.5785 23.718C51.7866 23.9298 51.8064 24.25 51.7965 24.5062C51.7568 26.5654 51.7568 28.5606 51.8014 30.4425C51.8361 31.8761 51.301 32.7234 50.0722 33.1816C49.6857 33.3245 49.3834 33.6102 49.2248 33.9797C49.0514 34.3787 49.0514 34.8517 49.2348 35.2753C49.5568 36.0389 50.3992 36.3789 51.2762 36.1128C53.4564 35.4478 54.9429 33.5068 54.9776 31.2948C55.0024 29.408 55.0024 27.4867 54.9974 25.6294ZM33.7009 4.68229C33.7009 5.17985 33.2896 5.58875 32.7892 5.58875H30.1085C29.6081 5.58875 29.2017 5.17985 29.2017 4.68229V3.14524C29.2017 2.64768 29.6081 2.24371 30.1085 2.24371H32.7892C33.2896 2.24371 33.7009 2.64768 33.7009 3.14524V4.68229ZM49.6758 20.2843C48.8334 20.2843 48.001 20.2941 47.1834 20.304C46.3708 20.3187 45.573 20.3286 44.7901 20.3286C43.7744 20.3286 42.7685 20.3089 41.7626 20.2498C38.8987 20.0921 36.654 17.757 36.545 14.8258C36.5103 13.8356 36.5153 12.8355 36.5153 11.865C36.5203 11.1211 36.5252 10.3822 36.5103 9.64319C36.5054 9.41657 36.5252 9.09143 36.7482 8.89437C36.8389 8.81457 36.9449 8.77565 37.0514 8.75348H37.8645C38.2818 8.7589 38.6509 8.75742 38.9784 8.75348H40.7236C41.8028 8.81604 42.0694 9.15005 43.0807 10.5743C43.3581 10.9684 43.7 11.4512 44.141 12.0374C45.464 13.806 46.7374 15.5598 48.0852 17.422C48.6748 18.2349 49.2694 19.0576 49.8789 19.8951L50.1613 20.2843H49.6758Z" fill="#00A3FF"/>
</svg>
